<svg viewBox="0 0 400 400" xmlns="http://www.w3.org/2000/svg">
  <defs>
    <linearGradient id="avatarGradient" x1="0%" y1="0%" x2="100%" y2="100%">
      <stop offset="0%" style="stop-color:#ff00ff;stop-opacity:1" />
      <stop offset="50%" style="stop-color:#00ffff;stop-opacity:1" />
      <stop offset="100%" style="stop-color:#ff00ff;stop-opacity:1" />
    </linearGradient>
    <linearGradient id="glowGradient" x1="0%" y1="0%" x2="100%" y2="100%">
      <stop offset="0%" style="stop-color:#00ffff;stop-opacity:0.8" />
      <stop offset="100%" style="stop-color:#ff00ff;stop-opacity:0.8" />
    </linearGradient>
    <filter id="neonGlow">
      <feGaussianBlur stdDeviation="5" result="coloredBlur"/>
      <feMerge>
        <feMergeNode in="coloredBlur"/>
        <feMergeNode in="coloredBlur"/>
        <feMergeNode in="SourceGraphic"/>
      </feMerge>
    </filter>
  </defs>
  
  <!-- Background Circle -->
  <circle cx="200" cy="200" r="180" fill="#0a0a0a" opacity="0.8"/>
  
  <!-- Head -->
  <ellipse cx="200" cy="180" rx="80" ry="100" fill="#1a1a2e" stroke="url(#avatarGradient)" stroke-width="3" filter="url(#neonGlow)"/>
  
  <!-- Visor/Eyes -->
  <rect x="130" y="160" width="140" height="40" rx="20" fill="#00ffff" opacity="0.8" filter="url(#neonGlow)"/>
  <rect x="135" y="165" width="130" height="30" rx="15" fill="#000" opacity="0.5"/>
  
  <!-- Eye Glow Effects -->
  <circle cx="160" cy="180" r="8" fill="#ff00ff" filter="url(#neonGlow)"/>
  <circle cx="240" cy="180" r="8" fill="#ff00ff" filter="url(#neonGlow)"/>
  
  <!-- Digital Lines on Visor -->
  <line x1="140" y1="170" x2="170" y2="170" stroke="#00ff00" stroke-width="1" opacity="0.6"/>
  <line x1="140" y1="175" x2="165" y2="175" stroke="#00ff00" stroke-width="1" opacity="0.6"/>
  <line x1="140" y1="180" x2="175" y2="180" stroke="#00ff00" stroke-width="1" opacity="0.6"/>
  <line x1="140" y1="185" x2="160" y2="185" stroke="#00ff00" stroke-width="1" opacity="0.6"/>
  <line x1="140" y1="190" x2="170" y2="190" stroke="#00ff00" stroke-width="1" opacity="0.6"/>
  
  <line x1="230" y1="170" x2="260" y2="170" stroke="#00ff00" stroke-width="1" opacity="0.6"/>
  <line x1="235" y1="175" x2="260" y2="175" stroke="#00ff00" stroke-width="1" opacity="0.6"/>
  <line x1="225" y1="180" x2="260" y2="180" stroke="#00ff00" stroke-width="1" opacity="0.6"/>
  <line x1="240" y1="185" x2="260" y2="185" stroke="#00ff00" stroke-width="1" opacity="0.6"/>
  <line x1="230" y1="190" x2="260" y2="190" stroke="#00ff00" stroke-width="1" opacity="0.6"/>
  
  <!-- Neck/Collar -->
  <rect x="170" y="270" width="60" height="40" fill="#1a1a2e" stroke="url(#avatarGradient)" stroke-width="2"/>
  
  <!-- Shoulders -->
  <path d="M 140 300 L 120 320 L 120 350 L 140 350" fill="#1a1a2e" stroke="#00ffff" stroke-width="2" filter="url(#neonGlow)"/>
  <path d="M 260 300 L 280 320 L 280 350 L 260 350" fill="#1a1a2e" stroke="#00ffff" stroke-width="2" filter="url(#neonGlow)"/>
  
  <!-- Circuit Details on Head -->
  <g opacity="0.7">
    <path d="M 130 140 L 150 140 L 150 130 L 170 130" stroke="#ff00ff" stroke-width="2" fill="none" filter="url(#neonGlow)"/>
    <circle cx="130" cy="140" r="3" fill="#ff00ff"/>
    <circle cx="150" cy="140" r="3" fill="#ff00ff"/>
    <circle cx="170" cy="130" r="4" fill="#ff00ff"/>
    
    <path d="M 270 140 L 250 140 L 250 130 L 230 130" stroke="#00ffff" stroke-width="2" fill="none" filter="url(#neonGlow)"/>
    <circle cx="270" cy="140" r="3" fill="#00ffff"/>
    <circle cx="250" cy="140" r="3" fill="#00ffff"/>
    <circle cx="230" cy="130" r="4" fill="#00ffff"/>
  </g>
  
  <!-- Antenna/Tech Details -->
  <line x1="120" y1="120" x2="110" y2="100" stroke="#ff00ff" stroke-width="2" filter="url(#neonGlow)"/>
  <circle cx="110" cy="100" r="5" fill="#ff00ff" filter="url(#neonGlow)"/>
  
  <line x1="280" y1="120" x2="290" y2="100" stroke="#00ffff" stroke-width="2" filter="url(#neonGlow)"/>
  <circle cx="290" cy="100" r="5" fill="#00ffff" filter="url(#neonGlow)"/>
  
  <!-- Chest Panel -->
  <rect x="160" y="310" width="80" height="60" rx="5" fill="#0a0a0a" stroke="url(#glowGradient)" stroke-width="2" filter="url(#neonGlow)"/>
  
  <!-- Chest Details -->
  <line x1="170" y1="320" x2="230" y2="320" stroke="#00ffff" stroke-width="1" opacity="0.6"/>
  <line x1="170" y1="330" x2="230" y2="330" stroke="#ff00ff" stroke-width="1" opacity="0.6"/>
  <line x1="170" y1="340" x2="230" y2="340" stroke="#00ff00" stroke-width="1" opacity="0.6"/>
  <line x1="170" y1="350" x2="230" y2="350" stroke="#00ffff" stroke-width="1" opacity="0.6"/>
  <line x1="170" y1="360" x2="230" y2="360" stroke="#ff00ff" stroke-width="1" opacity="0.6"/>
  
  <!-- Power Core -->
  <circle cx="200" cy="340" r="12" fill="#00ffff" opacity="0.3" filter="url(#neonGlow)"/>
  <circle cx="200" cy="340" r="8" fill="#ff00ff" opacity="0.5" filter="url(#neonGlow)"/>
  <circle cx="200" cy="340" r="4" fill="#00ffff" filter="url(#neonGlow)"/>
  
  <!-- Decorative Hexagons -->
  <polygon points="80,250 90,245 100,250 100,260 90,265 80,260" stroke="#00ff00" stroke-width="1.5" fill="none" opacity="0.5" filter="url(#neonGlow)"/>
  <polygon points="300,250 310,245 320,250 320,260 310,265 300,260" stroke="#00ff00" stroke-width="1.5" fill="none" opacity="0.5" filter="url(#neonGlow)"/>
</svg>
