<svg viewBox="0 0 600 400" xmlns="http://www.w3.org/2000/svg">
  <defs>
    <filter id="proj4Glow">
      <feGaussianBlur stdDeviation="3" result="coloredBlur"/>
      <feMerge>
        <feMergeNode in="coloredBlur"/>
        <feMergeNode in="SourceGraphic"/>
      </feMerge>
    </filter>
  </defs>
  <rect width="600" height="400" fill="#0a0a0a"/>
  <circle cx="300" cy="200" r="80" fill="none" stroke="#00ffff" stroke-width="3" filter="url(#proj4Glow)"/>
  <circle cx="300" cy="200" r="60" fill="none" stroke="#ff00ff" stroke-width="2" filter="url(#proj4Glow)"/>
  <circle cx="300" cy="200" r="40" fill="none" stroke="#00ff00" stroke-width="2" filter="url(#proj4Glow)"/>
  <circle cx="300" cy="200" r="20" fill="#00ffff" opacity="0.5" filter="url(#proj4Glow)"/>
  <g opacity="0.7">
    <line x1="220" y1="200" x2="180" y2="200" stroke="#ff00ff" stroke-width="2"/>
    <circle cx="180" cy="200" r="8" fill="#ff00ff" filter="url(#proj4Glow)"/>
    <line x1="380" y1="200" x2="420" y2="200" stroke="#00ffff" stroke-width="2"/>
    <circle cx="420" cy="200" r="8" fill="#00ffff" filter="url(#proj4Glow)"/>
    <line x1="300" y1="120" x2="300" y2="80" stroke="#00ff00" stroke-width="2"/>
    <circle cx="300" cy="80" r="8" fill="#00ff00" filter="url(#proj4Glow)"/>
    <line x1="300" y1="280" x2="300" y2="320" stroke="#ff00ff" stroke-width="2"/>
    <circle cx="300" cy="320" r="8" fill="#ff00ff" filter="url(#proj4Glow)"/>
  </g>
  <text x="300" y="210" font-family="monospace" font-size="20" fill="#00ffff" text-anchor="middle" filter="url(#proj4Glow)">NEURAL</text>
  <polygon points="150,100 170,80 190,100 170,120" fill="none" stroke="#ff00ff" stroke-width="2" opacity="0.5"/>
  <polygon points="410,300 430,280 450,300 430,320" fill="none" stroke="#00ffff" stroke-width="2" opacity="0.5"/>
</svg>
