<svg viewBox="0 0 600 400" xmlns="http://www.w3.org/2000/svg">
  <defs>
    <filter id="proj3Glow">
      <feGaussianBlur stdDeviation="3" result="coloredBlur"/>
      <feMerge>
        <feMergeNode in="coloredBlur"/>
        <feMergeNode in="SourceGraphic"/>
      </feMerge>
    </filter>
  </defs>
  
  <rect width="600" height="400" fill="#0a0a0a"/>
  
  <!-- UI Components -->
  <rect x="100" y="80" width="400" height="60" rx="30" fill="none" stroke="#ff00ff" stroke-width="3" filter="url(#proj3Glow)"/>
  <text x="300" y="115" font-family="monospace" font-size="24" fill="#ff00ff" text-anchor="middle" filter="url(#proj3Glow)">GLITCH BUTTON</text>
  
  <rect x="100" y="160" width="180" height="50" rx="5" fill="#1a1a2e" stroke="#00ffff" stroke-width="2"/>
  <rect x="110" y="170" width="160" height="30" rx="3" fill="#0a0a0a" stroke="#00ffff" stroke-width="1"/>
  <text x="120" y="192" font-family="monospace" font-size="14" fill="#00ffff">input_field.txt</text>
  
  <rect x="320" y="160" width="180" height="50" rx="5" fill="#1a1a2e" stroke="#00ff00" stroke-width="2"/>
  <circle cx="340" cy="185" r="8" fill="#00ff00" filter="url(#proj3Glow)"/>
  <text x="360" y="192" font-family="monospace" font-size="14" fill="#00ff00">Active Status</text>
  
  <!-- Card Design -->
  <g filter="url(#proj3Glow)">
    <rect x="80" y="240" width="200" height="120" rx="10" fill="#1a1a2e" stroke="#ff00ff" stroke-width="2"/>
    <line x1="80" y1="280" x2="280" y2="280" stroke="#ff00ff" stroke-width="1"/>
    <text x="180" y="265" font-family="monospace" font-size="16" fill="#ff00ff" text-anchor="middle">CARD TITLE</text>
    <text x="100" y="305" font-family="monospace" font-size="12" fill="#00ffff">→ Feature One</text>
    <text x="100" y="330" font-family="monospace" font-size="12" fill="#00ffff">→ Feature Two</text>
    <text x="100" y="355" font-family="monospace" font-size="12" fill="#00ffff">→ Feature Three</text>
  </g>
  
  <g filter="url(#proj3Glow)">
    <rect x="320" y="240" width="200" height="120" rx="10" fill="#1a1a2e" stroke="#00ffff" stroke-width="2"/>
    <circle cx="420" cy="300" r="30" fill="none" stroke="#00ffff" stroke-width="3"/>
    <polygon points="410,300 420,290 430,300 420,310" fill="#00ffff"/>
  </g>
  
  <!-- Decorative Elements -->
  <line x1="50" y1="50" x2="550" y2="50" stroke="#00ff00" stroke-width="2" opacity="0.5"/>
  <line x1="50" y1="380" x2="550" y2="380" stroke="#ff00ff" stroke-width="2" opacity="0.5"/>
  
  <circle cx="50" cy="50" r="5" fill="#00ff00" filter="url(#proj3Glow)"/>
  <circle cx="550" cy="50" r="5" fill="#00ff00" filter="url(#proj3Glow)"/>
  <circle cx="50" cy="380" r="5" fill="#ff00ff" filter="url(#proj3Glow)"/>
  <circle cx="550" cy="380" r="5" fill="#ff00ff" filter="url(#proj3Glow)"/>
</svg>
